<?xml version="1.0" encoding="utf-8"?>
<!-- Generator: Adobe Illustrator 16.0.0, SVG Export Plug-In . SVG Version: 6.00 Build 0)  -->
<!DOCTYPE svg PUBLIC "-//W3C//DTD SVG 1.1//EN" "http://www.w3.org/Graphics/SVG/1.1/DTD/svg11.dtd">
<svg version="1.1" id="Layer_1" xmlns="http://www.w3.org/2000/svg" xmlns:xlink="http://www.w3.org/1999/xlink" x="0px" y="0px"
	 width="32px" height="32px" viewBox="0 0 32 32" enable-background="new 0 0 32 32" xml:space="preserve">
<path fill="#92D3EA" d="M16.313,30.955C9.926,30.817,5.985,25.733,6,20.396l0,0c0-1.907,0.486-3.835,1.512-5.592l0,0
	C11.314,8.25,14.87,6.797,15.215,2.02l0,0c0-0.612,0.806-1.02,0.999-1.02l0,0c0.486,0.021,0.685,0.172,0.746,0.193l0,0l0.366,0.194
	L17.378,1.8c0.565,4.903,4.004,6.471,7.787,13.003l0,0c0.983,1.757,1.465,3.664,1.465,5.535l0,0
	c0.021,5.409-3.972,10.586-10.317,10.632l0,0V31V30.955L16.313,30.955z M8.917,15.599c-0.883,1.526-1.291,3.178-1.291,4.797l0,0
	c0.021,4.604,3.252,8.819,8.779,8.954l0,0v0.015c5.343-0.109,8.595-4.395,8.614-9.025l0,0c0-1.615-0.418-3.256-1.254-4.74l0,0
	c-2.922-5.186-6.042-7.181-7.423-11.138l0,0C15.085,8.469,11.838,10.388,8.917,15.599L8.917,15.599z"/>
</svg>
