<?xml version="1.0" encoding="utf-8"?>
<!-- Generator: Adobe Illustrator 16.0.0, SVG Export Plug-In . SVG Version: 6.00 Build 0)  -->
<!DOCTYPE svg PUBLIC "-//W3C//DTD SVG 1.1//EN" "http://www.w3.org/Graphics/SVG/1.1/DTD/svg11.dtd">
<svg version="1.1" id="Layer_1" xmlns="http://www.w3.org/2000/svg" xmlns:xlink="http://www.w3.org/1999/xlink" x="0px" y="0px"
	 width="32px" height="32px" viewBox="0 0 32 32" enable-background="new 0 0 32 32" xml:space="preserve">
<g>
	<path fill="#FFCC07" d="M30.5,21.125h-5.893c-0.131,0-0.199-0.455-0.159-0.578c0.282-0.863,0.445-1.935,0.445-2.891
		c0-4.904-3.989-8.972-8.894-8.972s-8.894,3.95-8.894,8.854c0,0.955,0.159,2.165,0.44,3.027c0.041,0.123-0.027,0.559-0.158,0.559
		H1.5c-0.276,0-0.5,0.224-0.5,0.5s0.224,0.5,0.5,0.5h29c0.276,0,0.5-0.224,0.5-0.5S30.776,21.125,30.5,21.125z M23.39,20.55
		c-0.057,0.15-0.193,0.575-0.354,0.575H8.952c-0.161,0-0.297-0.425-0.353-0.575c-0.317-0.854-0.493-1.931-0.493-2.894
		c0-4.353,3.541-7.972,7.894-7.972s7.894,3.658,7.894,8.011C23.894,18.66,23.71,19.696,23.39,20.55z"/>
	<path fill="#93D3EB" d="M26.5,28.125h-21c-0.276,0-0.5,0.224-0.5,0.5s0.224,0.5,0.5,0.5h21c0.276,0,0.5-0.224,0.5-0.5
		S26.776,28.125,26.5,28.125z"/>
	<path fill="#ACC926" d="M28.5,24.125h-25c-0.276,0-0.5,0.224-0.5,0.5s0.224,0.5,0.5,0.5h25c0.276,0,0.5-0.224,0.5-0.5
		S28.776,24.125,28.5,24.125z"/>
	<path fill="#FFCC07" d="M15.354,6.5c0.276,0,0.5-0.224,0.5-0.5V3c0-0.276-0.224-0.5-0.5-0.5s-0.5,0.224-0.5,0.5v3
		C14.854,6.276,15.077,6.5,15.354,6.5z"/>
	<path fill="#FFCC07" d="M27.5,18.125h3c0.276,0,0.5-0.224,0.5-0.5s-0.224-0.5-0.5-0.5h-3c-0.276,0-0.5,0.224-0.5,0.5
		S27.224,18.125,27.5,18.125z"/>
	<path fill="#FFCC07" d="M1.5,18.125h3c0.276,0,0.5-0.224,0.5-0.5s-0.224-0.5-0.5-0.5h-3c-0.276,0-0.5,0.224-0.5,0.5
		S1.224,18.125,1.5,18.125z"/>
	<path fill="#FFCC07" d="M7.515,9.723c0.195,0.195,0.512,0.195,0.707,0s0.195-0.512,0-0.707L6.1,6.894
		c-0.195-0.195-0.512-0.195-0.707,0s-0.195,0.512,0,0.707L7.515,9.723z"/>
	<path fill="#FFCC07" d="M24.484,9.723l2.121-2.122c0.195-0.195,0.195-0.512,0-0.707s-0.512-0.195-0.707,0l-2.121,2.122
		c-0.195,0.195-0.195,0.512,0,0.707S24.289,9.918,24.484,9.723z"/>
</g>
</svg>
