<?xml version="1.0" encoding="utf-8"?>
<!-- Generator: Adobe Illustrator 16.0.0, SVG Export Plug-In . SVG Version: 6.00 Build 0)  -->
<!DOCTYPE svg PUBLIC "-//W3C//DTD SVG 1.1//EN" "http://www.w3.org/Graphics/SVG/1.1/DTD/svg11.dtd">
<svg version="1.1" id="Layer_1" xmlns="http://www.w3.org/2000/svg" xmlns:xlink="http://www.w3.org/1999/xlink" x="0px" y="0px"
	 width="32px" height="32px" viewBox="0 0 32 32" enable-background="new 0 0 32 32" xml:space="preserve">
<g>
	<rect x="3" y="21.969" fill="#CB6FAA" width="26" height="1"/>
	<rect x="5" y="25.969" fill="#93D3EB" width="22" height="1"/>
	<path fill="#E7226C" d="M27.037,18.969c0.272-1,0.428-2.271,0.428-3.313c0-6.065-4.935-11.156-11-11.156s-11,5.169-11,11.234
		c0,1.041,0.155,2.234,0.428,3.234H1v1h30v-1H27.037z M25.984,18.969H6.945c-0.302-1-0.48-2.265-0.48-3.313
		c0-5.514,4.486-10.156,10-10.156s10,4.721,10,10.234C26.465,16.782,26.287,17.969,25.984,18.969z"/>
</g>
</svg>
