<?xml version="1.0" encoding="utf-8"?>
<!-- Generator: Adobe Illustrator 16.0.0, SVG Export Plug-In . SVG Version: 6.00 Build 0)  -->
<!DOCTYPE svg PUBLIC "-//W3C//DTD SVG 1.1//EN" "http://www.w3.org/Graphics/SVG/1.1/DTD/svg11.dtd">
<svg version="1.1" id="Layer_1" xmlns="http://www.w3.org/2000/svg" xmlns:xlink="http://www.w3.org/1999/xlink" x="0px" y="0px"
	 width="32px" height="32px" viewBox="0 0 32 32" enable-background="new 0 0 32 32" xml:space="preserve">
<g>
	<path fill="#92D3E9" d="M21.622,24.494c-0.151-0.015-0.295-0.117-0.386-0.257l0,0l-3.203-5.101c-1.156,0.873-4.171,2.966-6.816,3
		l0,0c-0.212,0-0.431-0.016-0.649-0.049l0,0c-3.272-0.545-5.86-3.17-5.901-3.193l0,0c-0.121-0.116-0.189-0.274-0.158-0.449l0,0
		c0.007-0.147,0.104-0.317,0.249-0.385l0,0l6-3.805c-1.036-1.039-3.341-3.608-3.529-6.211l0,0C7.213,7.882,7.213,7.773,7.213,7.727
		l0,0c0.052-3.321,3.195-6.498,3.203-6.559l0,0c0.113-0.117,0.271-0.181,0.438-0.166l0,0c0.15,0.011,0.316,0.098,0.4,0.238l0,0
		l3.589,5.214l6.438-3.177c0.034,0,0.295-0.038,0.725-0.038l0,0c1.232,0,3.975,0.291,5.588,2.826l0,0l-0.147,0.722
		c-2.599,1.889-4.579,3.423-5.432,4.1l0,0c0.959,1.03,3.286,3.74,3.732,6.267l0,0c0.03,0.174,0.053,0.37,0.053,0.567l0,0
		c-0.061,3.211-3.711,6.559-3.726,6.626l0,0c-0.113,0.095-0.249,0.147-0.394,0.147l0,0C21.659,24.494,21.652,24.494,21.622,24.494
		L21.622,24.494z M18.267,17.818c0.144,0.026,0.287,0.129,0.363,0.253l0,0l3.144,4.999c0.937-1.031,2.992-3.495,2.946-5.35l0,0
		c0-0.137-0.022-0.28-0.038-0.394l0,0c-0.399-2.6-3.822-6.116-3.853-6.116l0,0l0.393-0.375l0.324,0.416l-0.324-0.416l-0.393,0.375
		c-0.099-0.118-0.151-0.261-0.151-0.408l0,0c0.008-0.155,0.09-0.291,0.204-0.401l0,0c0,0,2.214-1.772,5.508-4.186l0,0
		c-1.308-1.655-3.37-1.904-4.383-1.904l0,0c-0.237,0-0.4,0.012-0.438,0.012l0,0l-6.672,3.306l-0.681-0.178l-3.453-5.017
		C9.947,3.439,8.259,5.732,8.301,7.727l0,0c0,0,0,0.128,0.007,0.193l0,0c0.084,2.663,3.643,6.029,3.665,6.029l0,0
		c0.121,0.109,0.188,0.276,0.174,0.438l0,0c-0.015,0.178-0.106,0.317-0.25,0.416l0,0l-5.954,3.771
		c0.869,0.736,2.751,2.139,4.791,2.452l0,0c0.144,0.015,0.295,0.026,0.483,0.026l0,0c2.66,0.037,6.604-3.095,6.619-3.105l0,0
		c0.099-0.095,0.212-0.129,0.341-0.129l0,0C18.207,17.818,18.236,17.818,18.267,17.818L18.267,17.818z M14.746,12.431
		c0-1.107,0.892-1.968,1.991-1.979l0,0c1.084,0,1.976,0.872,1.976,1.979l0,0c0,1.095-0.877,1.972-1.976,1.972l0,0v-0.532v-0.552
		c0.494,0,0.91-0.404,0.91-0.888l0,0c0-0.499-0.416-0.899-0.91-0.899l0,0c-0.495,0-0.903,0.401-0.903,0.899l0,0
		c0,0.483,0.408,0.888,0.903,0.888l0,0v0.552v0.532C15.638,14.403,14.746,13.526,14.746,12.431L14.746,12.431z"/>
	<rect x="15.717" y="19.632" fill="#92D3E9" width="1.122" height="11.368"/>
</g>
</svg>
